<?xml version="1.0" standalone="no"?>
<!DOCTYPE svg PUBLIC "-//W3C//DTD SVG 20010904//EN"
 "http://www.w3.org/TR/2001/REC-SVG-20010904/DTD/svg10.dtd">
<svg version="1.0" xmlns="http://www.w3.org/2000/svg"
 width="93.000000pt" height="106.000000pt" viewBox="0 0 93.000000 106.000000"
 preserveAspectRatio="xMidYMid meet">

<g transform="translate(0.000000,106.000000) scale(0.100000,-0.100000)"
fill="#000000" stroke="none">
<path d="M590 335 c0 -13 10 -70 22 -126 l21 -101 32 5 c29 5 38 -1 91 -54 34
-34 67 -59 79 -59 29 0 85 60 85 91 0 17 -18 42 -55 79 -51 50 -68 80 -46 80
14 0 23 32 11 44 -12 12 -187 65 -217 66 -18 0 -23 -6 -23 -25z"/>
</g>
</svg>
